<?xml version="1.0" standalone="no"?><!DOCTYPE svg PUBLIC "-//W3C//DTD SVG 1.1//EN" "http://www.w3.org/Graphics/SVG/1.1/DTD/svg11.dtd"><svg t="1622774535424" class="icon" viewBox="0 0 1024 1024" version="1.1" xmlns="http://www.w3.org/2000/svg" p-id="6958" xmlns:xlink="http://www.w3.org/1999/xlink" width="200" height="200"><defs><style type="text/css"></style></defs><path d="M913.94002 877.286623a27.441713 27.441713 0 0 1-27.441713-27.441714c0-0.760884 0-1.509294 0.087314-2.232757V185.505981a26.194363 26.194363 0 0 1-0.910566-6.798061c0-15.130363 11.363364-27.441713 26.493727-27.441713h1.634029a27.566448 27.566448 0 0 1 27.591396 27.441713v671.186884a27.441713 27.441713 0 0 1-27.454187 27.391819zM110.27203 877.286623h-0.174629a27.441713 27.441713 0 0 1-27.441714-27.441714V187.451848a27.441713 27.441713 0 0 1 54.808586 0v660.222671c0 0.735937 0.087315 1.4594 0.087314 2.220285a27.329452 27.329452 0 0 1-27.279557 27.391819z" p-id="6959"></path><path d="M511.931396 352.32665a27.441713 27.441713 0 0 1 0-54.808585c232.007211 0 374.517017-70.687358 374.517017-121.35474S743.963554 54.808585 511.931396 54.808585 137.414379 125.495944 137.414379 176.163325c0 24.947012 37.333203 64.238556 142.559699 93.127196a27.441713 27.441713 0 0 1-14.51916 52.850244C147.59276 289.772017 82.605793 237.894706 82.605793 176.163325 82.605793 61.743855 303.798475 0 511.931396 0s429.325602 61.743855 429.325602 176.163325S720.126684 352.32665 511.931396 352.32665zM512.01871 688.188272C303.885789 688.188272 82.730528 626.481838 82.730528 512.087315a27.441713 27.441713 0 0 1 54.808586 0c0 50.654908 142.472385 121.317319 374.517017 121.317319s374.517017-70.662411 374.517017-121.317319a27.441713 27.441713 0 0 1 54.808585 0c-0.037421 114.394523-221.255049 176.100957-429.363023 176.100957zM512.01871 1024c-204.029137 0-422.851853-60.022511-429.088605-171.273711a35.275075 35.275075 0 0 1-0.199577-4.87714 27.441713 27.441713 0 0 1 54.771165-1.397033 23.500085 23.500085 0 0 1 0.199576 2.494701c1.696397 50.205862 144.942139 120.232124 374.354862 120.232124s372.658465-70.026263 374.354861-120.232124c0-0.910566 0.099788-1.833605 0.224523-2.744171a27.541501 27.541501 0 0 1 27.341925-25.608108 27.292031 27.292031 0 0 1 27.366873 27.254611 35.275075 35.275075 0 0 1-0.286891 4.852193c-6.211806 111.276147-225.009574 171.298658-429.038712 171.298658zM110.097401 847.849149z m27.441713 0z" p-id="6960"></path></svg>